<svg width="35" height="27" viewBox="0 0 35 27" fill="none" xmlns="http://www.w3.org/2000/svg">
<path d="M29.8297 21.147L29.8298 21.147L34.0284 6.56369L34.0284 6.56366C34.1408 6.17321 34.0619 5.75357 33.8162 5.42996L33.8161 5.42983C33.5701 5.10642 33.1861 4.91667 32.779 4.91667H7.32302L6.61642 1.76107L6.6164 1.761C6.48366 1.16907 5.9555 0.75 5.34767 0.75H-0.950333C-1.66637 0.75 -2.25 1.32644 -2.25 2.04167C-2.25 2.7569 -1.66637 3.33333 -0.950333 3.33333H4.30552C4.71136 5.14614 7.58173 17.9646 8.00768 19.8666C6.90611 20.4242 6.14734 21.5619 6.14734 22.875C6.14734 24.738 7.67375 26.25 9.54634 26.25H28.5803C29.2963 26.25 29.88 25.6736 29.88 24.9583C29.88 24.2431 29.2963 23.6667 28.5803 23.6667H9.54634C9.10392 23.6667 8.74667 23.3094 8.74667 22.875C8.74667 22.4412 9.10259 22.0846 9.54419 22.0836H9.54524C9.54969 22.0836 9.55371 22.0835 9.55713 22.0833H28.5803C29.1592 22.0833 29.6699 21.7022 29.8297 21.147ZM9.57195 22.0823C9.57238 22.0822 9.57191 22.0823 9.57092 22.0823L9.57195 22.0823ZM10.5885 19.5L7.90132 7.5H31.0552L27.6002 19.5H10.5885Z" fill="#88BF40" stroke="#88BF40" stroke-width="0.5"/>
</svg>
