<svg width="40" height="40" viewBox="0 0 40 40" fill="none" xmlns="http://www.w3.org/2000/svg">
<g clip-path="url(#clip0)">
<path d="M31.8985 7.69626L29.3483 36.7568H10.6521L8.10236 7.69626L4.87158 7.97946L7.46783 37.567C7.60447 38.9308 8.78775 40 10.1624 40H29.8381C31.2121 40 32.3959 38.9313 32.5348 37.5476L35.1294 7.97946L31.8985 7.69626Z" fill="#EC7523"/>
<path d="M25.9462 0H14.0543C12.564 0 11.3516 1.21242 11.3516 2.70273V7.83789H14.5948V3.2432H25.4055V7.83781H28.6488V2.70266C28.6489 1.21242 27.4365 0 25.9462 0Z" fill="#EC7523"/>
<path d="M37.2972 6.21625H2.7027C1.80699 6.21625 1.08105 6.94218 1.08105 7.83789C1.08105 8.73359 1.80699 9.45953 2.7027 9.45953H37.2973C38.193 9.45953 38.9189 8.73359 38.9189 7.83789C38.9189 6.94218 38.1929 6.21625 37.2972 6.21625Z" fill="#EC7523"/>
</g>
<defs>
<clipPath id="clip0">
<rect width="40" height="40" fill="white"/>
</clipPath>
</defs>
</svg>
